<svg xmlns="http://www.w3.org/2000/svg" width="1128" height="235" fill="none" viewBox="0 0 1128 235"><path fill="#000" fill-rule="evenodd" d="M46.4546 180.417C23.602 163.6 10.4981 141.19 10.4981 117.36C10.4981 93.5304 23.602 71.1201 46.4546 54.303C69.3028 37.4891 101.351 26.7844 137.193 26.7844C173.035 26.7844 205.083 37.4891 227.931 54.303C250.784 71.1201 263.888 93.5304 263.888 117.36C263.888 141.19 250.784 163.6 227.931 180.417C205.083 197.231 173.035 207.936 137.193 207.936C101.351 207.936 69.3028 197.231 46.4546 180.417ZM137.193 218.002C61.6622 218.002 0.432475 172.943 0.432475 117.36C0.432475 61.7775 61.6622 16.7188 137.193 16.7188C212.724 16.7188 273.953 61.7775 273.953 117.36C273.953 172.943 212.724 218.002 137.193 218.002Z" clip-rule="evenodd"/><path fill="#EF1515" d="M31.2674 138.938C81.2726 229.561 252.867 188.351 240.635 134.285C228.402 80.2198 107.29 165.894 31.2674 138.938Z"/><path fill="#EF1515" d="M243.119 92.4434C193.113 1.81965 21.5186 43.03 33.7512 97.0957C45.9838 151.161 167.096 65.4873 243.119 92.4434Z"/><path fill="#000" d="M22.7522 111.978C58.3832 160.313 223.032 54.8118 251.634 116.629C200.672 77.5852 42.5281 179.833 22.7522 111.978Z"/><path fill="#000" d="M449.749 43.1726V136.239C449.749 146.786 447.503 155.933 443.01 163.68C438.518 171.363 432.073 177.222 423.675 181.259C415.276 185.295 405.348 187.313 393.889 187.313C376.572 187.313 362.932 182.821 352.971 173.837C343.01 164.852 337.932 152.548 337.737 136.923V43.1726H372.21V137.606C372.6 153.166 379.827 160.946 393.889 160.946C400.986 160.946 406.357 158.993 410.003 155.087C413.649 151.18 415.471 144.833 415.471 136.044V43.1726H449.749ZM499.944 79.696L501.018 92.0984C508.31 82.5281 518.369 77.7429 531.194 77.7429C542.197 77.7429 550.4 81.0307 555.803 87.6062C561.272 94.1817 564.104 104.078 564.3 117.294V185.36H531.292V118.661C531.292 113.322 530.218 109.416 528.069 106.942C525.921 104.403 522.014 103.134 516.35 103.134C509.905 103.134 505.12 105.673 501.995 110.751V185.36H469.085V79.696H499.944ZM617.327 185.36H584.319V79.696H617.327V185.36ZM582.366 52.45C582.366 47.7625 584.059 43.9213 587.444 40.9265C590.83 37.9317 595.224 36.4343 600.628 36.4343C606.031 36.4343 610.426 37.9317 613.811 40.9265C617.197 43.9213 618.889 47.7625 618.889 52.45C618.889 57.1375 617.197 60.9786 613.811 63.9734C610.426 66.9682 606.031 68.4656 600.628 68.4656C595.224 68.4656 590.83 66.9682 587.444 63.9734C584.059 60.9786 582.366 57.1375 582.366 52.45ZM682.366 161.923C686.988 161.923 690.569 160.686 693.108 158.212C695.647 155.673 696.884 152.157 696.819 147.665H727.678C727.678 159.253 723.512 168.759 715.178 176.18C706.91 183.602 696.233 187.313 683.147 187.313C667.783 187.313 655.673 182.496 646.819 172.86C637.965 163.225 633.538 149.878 633.538 132.821V131.454C633.538 120.777 635.491 111.369 639.397 103.231C643.369 95.0281 649.065 88.7455 656.487 84.3835C663.909 79.9565 672.698 77.7429 682.854 77.7429C696.591 77.7429 707.496 81.5515 715.569 89.1687C723.642 96.7859 727.678 107.105 727.678 120.126H696.819C696.819 114.657 695.484 110.458 692.815 107.528C690.146 104.598 686.565 103.134 682.073 103.134C673.544 103.134 668.564 108.57 667.132 119.442C666.676 122.893 666.448 127.645 666.448 133.7C666.448 144.312 667.718 151.669 670.257 155.77C672.796 159.872 676.832 161.923 682.366 161.923ZM773.772 91.0242C780.803 82.17 789.788 77.7429 800.725 77.7429C812.379 77.7429 821.168 81.1934 827.093 88.0945C833.017 94.9955 836.044 105.184 836.175 118.661V185.36H803.167V119.442C803.167 113.843 802.027 109.742 799.749 107.137C797.47 104.468 793.596 103.134 788.128 103.134C781.357 103.134 776.572 105.282 773.772 109.579V185.36H740.862V35.3601H773.772V91.0242ZM905.608 187.313C889.397 187.313 876.279 182.496 866.253 172.86C856.227 163.16 851.214 150.562 851.214 135.067V132.333C851.214 121.525 853.199 111.988 857.171 103.719C861.207 95.4513 867.066 89.071 874.749 84.5789C882.431 80.0216 891.546 77.7429 902.093 77.7429C916.936 77.7429 928.655 82.3653 937.249 91.6101C945.843 100.79 950.139 113.615 950.139 130.087V142.88H884.71C885.882 148.804 888.453 153.459 892.425 156.844C896.396 160.23 901.539 161.923 907.854 161.923C918.271 161.923 926.409 158.277 932.268 150.985L947.307 168.759C943.206 174.423 937.379 178.947 929.827 182.333C922.34 185.653 914.267 187.313 905.608 187.313ZM901.897 103.134C892.262 103.134 886.533 109.514 884.71 122.274H917.913V119.735C918.043 114.462 916.708 110.393 913.909 107.528C911.109 104.598 907.106 103.134 901.897 103.134ZM994.573 79.696L995.647 92.0984C1003.13 82.5281 1013.19 77.7429 1025.82 77.7429C1039.17 77.7429 1048.19 83.0489 1052.87 93.6609C1060.04 83.0489 1070.39 77.7429 1083.93 77.7429C1105.35 77.7429 1116.35 90.6986 1116.94 116.61V185.36H1083.93V118.661C1083.93 113.257 1083.02 109.318 1081.19 106.844C1079.37 104.371 1076.05 103.134 1071.23 103.134C1064.72 103.134 1059.87 106.031 1056.68 111.825L1056.78 113.192V185.36H1023.77V118.856C1023.77 113.322 1022.89 109.318 1021.14 106.844C1019.38 104.371 1016.02 103.134 1011.08 103.134C1004.76 103.134 999.944 106.031 996.624 111.825V185.36H963.714V79.696H994.573Z"/></svg>